<svg width="28" height="28" viewBox="0 0 28 28" fill="none" xmlns="http://www.w3.org/2000/svg">
<path d="M22.1667 5.83331H5.83337C4.90512 5.83331 4.01488 6.20206 3.3585 6.85844C2.70212 7.51482 2.33337 8.40506 2.33337 9.33331V18.6666C2.33337 19.5949 2.70212 20.4851 3.3585 21.1415C4.01488 21.7979 4.90512 22.1666 5.83337 22.1666H22.1667C23.095 22.1666 23.9852 21.7979 24.6416 21.1415C25.298 20.4851 25.6667 19.5949 25.6667 18.6666V9.33331C25.6667 8.40506 25.298 7.51482 24.6416 6.85844C23.9852 6.20206 23.095 5.83331 22.1667 5.83331ZM4.66671 9.33331C4.66671 9.02389 4.78962 8.72715 5.00842 8.50836C5.22721 8.28956 5.52396 8.16665 5.83337 8.16665H22.1667C22.4761 8.16665 22.7729 8.28956 22.9917 8.50836C23.2105 8.72715 23.3334 9.02389 23.3334 9.33331V10.5H4.66671V9.33331ZM23.3334 18.6666C23.3334 18.9761 23.2105 19.2728 22.9917 19.4916C22.7729 19.7104 22.4761 19.8333 22.1667 19.8333H5.83337C5.52396 19.8333 5.22721 19.7104 5.00842 19.4916C4.78962 19.2728 4.66671 18.9761 4.66671 18.6666V12.8333H23.3334V18.6666Z" fill="#343331"/>
<path d="M8.16667 17.5H12.8333C13.1428 17.5 13.4395 17.3771 13.6583 17.1583C13.8771 16.9395 14 16.6428 14 16.3334C14 16.0239 13.8771 15.7272 13.6583 15.5084C13.4395 15.2896 13.1428 15.1667 12.8333 15.1667H8.16667C7.85725 15.1667 7.5605 15.2896 7.34171 15.5084C7.12292 15.7272 7 16.0239 7 16.3334C7 16.6428 7.12292 16.9395 7.34171 17.1583C7.5605 17.3771 7.85725 17.5 8.16667 17.5Z" fill="#343331"/>
<path d="M17.5 17.5H19.8334C20.1428 17.5 20.4395 17.3771 20.6583 17.1583C20.8771 16.9395 21 16.6428 21 16.3334C21 16.0239 20.8771 15.7272 20.6583 15.5084C20.4395 15.2896 20.1428 15.1667 19.8334 15.1667H17.5C17.1906 15.1667 16.8939 15.2896 16.6751 15.5084C16.4563 15.7272 16.3334 16.0239 16.3334 16.3334C16.3334 16.6428 16.4563 16.9395 16.6751 17.1583C16.8939 17.3771 17.1906 17.5 17.5 17.5Z" fill="#343331"/>
</svg>
