<svg id="Layer_1" data-name="Layer 1" xmlns="http://www.w3.org/2000/svg" viewBox="0 0 272 127"><defs><style>.cls-1{fill:#343331;}</style></defs><path class="cls-1" d="M130.8,67.7a2.93,2.93,0,0,1-1.13-.23,2.88,2.88,0,0,1-.94-.67L115,52.15a2.83,2.83,0,0,1,.13-4,2.83,2.83,0,0,1,4,.13l11.67,12.44L154.6,34.64a2.82,2.82,0,0,1,.88-.73,2.85,2.85,0,0,1,1.1-.32,2.93,2.93,0,0,1,1.14.14,2.9,2.9,0,0,1,1,.58,3,3,0,0,1,.67.93,2.79,2.79,0,0,1,.05,2.24,2.84,2.84,0,0,1-.64,1l-25.9,28.33a2.83,2.83,0,0,1-.93.68,2.77,2.77,0,0,1-1.13.25Z"/><path class="cls-1" d="M56.12,103.83a6.57,6.57,0,0,1-3.24-.83,6.24,6.24,0,0,1-2.34-2.28,6.56,6.56,0,0,1-.86-3.33,6.39,6.39,0,0,1,.86-3.3,6.22,6.22,0,0,1,2.34-2.3A6.57,6.57,0,0,1,56.12,91a6.46,6.46,0,0,1,3.24.83,6.06,6.06,0,0,1,2.33,2.3,6.39,6.39,0,0,1,.86,3.3,6.56,6.56,0,0,1-.86,3.33A6.08,6.08,0,0,1,59.36,103,6.51,6.51,0,0,1,56.12,103.83Zm0-2.25a3.93,3.93,0,0,0,2-.5,3.52,3.52,0,0,0,1.35-1.48A4.73,4.73,0,0,0,60,97.39a4.64,4.64,0,0,0-.49-2.2,3.41,3.41,0,0,0-1.35-1.46,3.93,3.93,0,0,0-2-.5,4,4,0,0,0-2,.5,3.41,3.41,0,0,0-1.35,1.46,4.64,4.64,0,0,0-.49,2.2,4.73,4.73,0,0,0,.49,2.21,3.52,3.52,0,0,0,1.35,1.48A4,4,0,0,0,56.12,101.58Zm10.82-6.3A3.64,3.64,0,0,1,68.2,94a3.59,3.59,0,0,1,1.8-.45v2.64h-.66a2.1,2.1,0,0,0-2.4,2.51v5H64.42v-10h2.52Zm4.11,3.4a5.78,5.78,0,0,1,.6-2.68,4.5,4.5,0,0,1,1.65-1.8,4.43,4.43,0,0,1,2.33-.63,4.15,4.15,0,0,1,1.85.43,3.57,3.57,0,0,1,1.4,1.12V90.38h2.56V103.7H78.88v-1.47a3.44,3.44,0,0,1-1.31,1.19,4.11,4.11,0,0,1-2,.45,4.33,4.33,0,0,1-2.31-.65,4.63,4.63,0,0,1-1.65-1.82A6,6,0,0,1,71.05,98.68Zm7.85,0a3.2,3.2,0,0,0-.36-1.57,2.49,2.49,0,0,0-1-1,2.58,2.58,0,0,0-2.61,0,2.53,2.53,0,0,0-1,1,3.17,3.17,0,0,0-.36,1.55,3.39,3.39,0,0,0,.36,1.59,2.72,2.72,0,0,0,1,1,2.52,2.52,0,0,0,1.3.36,2.53,2.53,0,0,0,2.28-1.35A3.26,3.26,0,0,0,78.9,98.72Zm14.27-.22a5.66,5.66,0,0,1-.07,1H85.81a2.52,2.52,0,0,0,.75,1.7,2.38,2.38,0,0,0,1.64.61,2.05,2.05,0,0,0,2-1.21h2.72A4.62,4.62,0,0,1,91.26,103a4.87,4.87,0,0,1-3,.92,5.35,5.35,0,0,1-2.6-.63,4.72,4.72,0,0,1-1.78-1.82,6.14,6.14,0,0,1,0-5.42,4.39,4.39,0,0,1,1.77-1.8,5.25,5.25,0,0,1,2.61-.63,5.15,5.15,0,0,1,2.53.61,4.22,4.22,0,0,1,1.75,1.75A5.13,5.13,0,0,1,93.17,98.5Zm-2.61-.72a2,2,0,0,0-.7-1.55,2.51,2.51,0,0,0-1.68-.59,2.27,2.27,0,0,0-1.58.58,2.43,2.43,0,0,0-.77,1.56Zm7-2.5A3.48,3.48,0,0,1,98.79,94a3.59,3.59,0,0,1,1.8-.45v2.64h-.67a2.09,2.09,0,0,0-2.39,2.51v5H95v-10h2.52Zm10.32-2.74a1.56,1.56,0,0,1-1.11-.41,1.43,1.43,0,0,1-.43-1.06,1.4,1.4,0,0,1,.43-1,1.57,1.57,0,0,1,1.11-.43A1.52,1.52,0,0,1,109,90a1.38,1.38,0,0,1,.45,1,1.41,1.41,0,0,1-.45,1.06A1.5,1.5,0,0,1,107.85,92.54Zm1.25,1.19v10h-2.52v-10Zm6.3,10.14a5.29,5.29,0,0,1-2.19-.44,4,4,0,0,1-1.55-1.2,3,3,0,0,1-.61-1.68h2.53a1.41,1.41,0,0,0,.56,1,2,2,0,0,0,1.24.38,1.89,1.89,0,0,0,1.12-.29.86.86,0,0,0,.41-.74.76.76,0,0,0-.5-.72,8,8,0,0,0-1.57-.54A14.14,14.14,0,0,1,113,99a3.21,3.21,0,0,1-1.23-.88,2.43,2.43,0,0,1-.5-1.6,2.62,2.62,0,0,1,.47-1.51A3.19,3.19,0,0,1,113.12,94a5.08,5.08,0,0,1,2.1-.4,4.27,4.27,0,0,1,2.85.9,3.34,3.34,0,0,1,1.17,2.39h-2.42a1.24,1.24,0,0,0-.5-.93,1.78,1.78,0,0,0-1.17-.36,1.87,1.87,0,0,0-1.06.25.81.81,0,0,0-.36.7.85.85,0,0,0,.5.78,9.14,9.14,0,0,0,1.57.52,12.24,12.24,0,0,1,1.78.56,3,3,0,0,1,1.21.9,2.44,2.44,0,0,1,.54,1.58,2.64,2.64,0,0,1-.49,1.55,3.21,3.21,0,0,1-1.37,1.08A5.27,5.27,0,0,1,115.4,103.87Zm14.71,0a5.31,5.31,0,0,1-2.59-.63,4.82,4.82,0,0,1-1.82-1.82,5.5,5.5,0,0,1-.65-2.7,5.41,5.41,0,0,1,.67-2.7,4.71,4.71,0,0,1,1.85-1.8,5.57,5.57,0,0,1,5.22,0,4.55,4.55,0,0,1,1.84,1.8,5.21,5.21,0,0,1,.68,2.7,5.13,5.13,0,0,1-.7,2.7,4.81,4.81,0,0,1-1.87,1.82A5.47,5.47,0,0,1,130.11,103.87Zm0-2.2a2.7,2.7,0,0,0,1.28-.32,2.49,2.49,0,0,0,1-1,3.4,3.4,0,0,0,.36-1.62,3,3,0,0,0-.75-2.18,2.54,2.54,0,0,0-3.64,0,3,3,0,0,0-.72,2.18,3.12,3.12,0,0,0,.7,2.19A2.36,2.36,0,0,0,130.11,101.67Zm12.58-8.08a3.84,3.84,0,0,1,2.88,1.13,4.3,4.3,0,0,1,1.1,3.13v5.85h-2.52V98.2a2.53,2.53,0,0,0-.6-1.82,2.08,2.08,0,0,0-1.62-.65,2.16,2.16,0,0,0-1.65.65,2.53,2.53,0,0,0-.6,1.82v5.5h-2.52v-10h2.52V95A3.42,3.42,0,0,1,141,94,3.85,3.85,0,0,1,142.69,93.59Zm13.6,2.21v4.83a1,1,0,0,0,.23.73,1.23,1.23,0,0,0,.83.22h1.17v2.12h-1.59q-3.18,0-3.18-3.09V95.8h-1.19V93.73h1.19V91.27h2.54v2.46h2.23V95.8ZM166,93.59a4,4,0,0,1,2,.5,3.29,3.29,0,0,1,1.37,1.46,4.82,4.82,0,0,1,.5,2.3v5.85h-2.52V98.2a2.53,2.53,0,0,0-.59-1.82,2.11,2.11,0,0,0-1.62-.65,2.18,2.18,0,0,0-1.66.65,2.57,2.57,0,0,0-.59,1.82v5.5h-2.52V90.38h2.52V95a3.2,3.2,0,0,1,1.3-1A4.09,4.09,0,0,1,166,93.59ZM181.5,98.5a5.66,5.66,0,0,1-.07,1h-7.29a2.52,2.52,0,0,0,.75,1.7,2.38,2.38,0,0,0,1.64.61,2.05,2.05,0,0,0,2-1.21h2.72a4.62,4.62,0,0,1-1.66,2.38,4.87,4.87,0,0,1-3,.92,5.35,5.35,0,0,1-2.6-.63,4.72,4.72,0,0,1-1.78-1.82,6.14,6.14,0,0,1,0-5.42A4.39,4.39,0,0,1,174,94.2a5.25,5.25,0,0,1,2.61-.63,5.15,5.15,0,0,1,2.53.61,4.22,4.22,0,0,1,1.75,1.75A5.13,5.13,0,0,1,181.5,98.5Zm-2.61-.72a2,2,0,0,0-.7-1.55,2.51,2.51,0,0,0-1.68-.59,2.27,2.27,0,0,0-1.58.58,2.43,2.43,0,0,0-.77,1.56Zm22.56-4-2.91,10h-2.72l-1.82-7-1.82,7h-2.73l-2.94-10h2.56l1.76,7.6,1.91-7.6h2.66l1.88,7.58L199,93.73Zm.72,5a5.91,5.91,0,0,1,.59-2.68,4.55,4.55,0,0,1,1.64-1.8,4.42,4.42,0,0,1,2.32-.63,4,4,0,0,1,3.3,1.58V93.73h2.53v10H210v-1.45a4.09,4.09,0,0,1-1.35,1.17,4.15,4.15,0,0,1-2,.45,4.3,4.3,0,0,1-2.3-.65,4.68,4.68,0,0,1-1.64-1.82A6.08,6.08,0,0,1,202.17,98.68Zm7.85,0a3.2,3.2,0,0,0-.36-1.57,2.63,2.63,0,0,0-2.29-1.37,2.56,2.56,0,0,0-1.3.35,2.6,2.6,0,0,0-1,1,3.17,3.17,0,0,0-.36,1.55,3.39,3.39,0,0,0,.36,1.59,2.8,2.8,0,0,0,1,1,2.52,2.52,0,0,0,1.3.36,2.59,2.59,0,0,0,1.31-.34,2.64,2.64,0,0,0,1-1A3.26,3.26,0,0,0,210,98.72Zm14.54-5-6.18,14.69H215.7l2.16-5-4-9.72h2.83l2.57,7,2.61-7Z"/></svg>