<svg id="Layer_1" data-name="Layer 1" xmlns="http://www.w3.org/2000/svg" viewBox="0 0 272 127"><defs><style>.cls-1{fill:#3a3936;}.cls-2{fill:#343331;}</style></defs><path class="cls-1" d="M152.44,30.17V27.33a5.69,5.69,0,0,0-1.64-4,5.48,5.48,0,0,0-3.94-1.66H124.52a5.52,5.52,0,0,0-4,1.66,5.72,5.72,0,0,0-1.63,4v2.84A8.29,8.29,0,0,0,113,32.66a8.56,8.56,0,0,0-2.46,6V69.83a8.56,8.56,0,0,0,2.46,6,8.29,8.29,0,0,0,5.92,2.49h33.5a8.29,8.29,0,0,0,5.92-2.49,8.55,8.55,0,0,0,2.45-6V38.67a8.55,8.55,0,0,0-2.45-6A8.29,8.29,0,0,0,152.44,30.17Zm-27.92-2.84h22.34V38.67H124.52Zm30.71,42.5a2.85,2.85,0,0,1-.82,2,2.76,2.76,0,0,1-2,.83h-33.5a2.8,2.8,0,0,1-2-.83,2.88,2.88,0,0,1-.81-2V38.67a2.88,2.88,0,0,1,.81-2,2.8,2.8,0,0,1,2-.83v2.84a5.72,5.72,0,0,0,1.63,4,5.52,5.52,0,0,0,4,1.66h22.34a5.48,5.48,0,0,0,3.94-1.66,5.69,5.69,0,0,0,1.64-4V35.83a2.76,2.76,0,0,1,2,.83,2.85,2.85,0,0,1,.82,2Z"/><path class="cls-2" d="M70.9,104.13a6.51,6.51,0,0,1-3.24-.83A6.13,6.13,0,0,1,65.32,101a6.41,6.41,0,0,1-.87-3.33,6.29,6.29,0,0,1,.87-3.29,6.11,6.11,0,0,1,2.34-2.31,6.81,6.81,0,0,1,6.48,0,6.13,6.13,0,0,1,2.32,2.31,6.38,6.38,0,0,1,.86,3.29,6.5,6.5,0,0,1-.86,3.33,6.15,6.15,0,0,1-2.32,2.29A6.57,6.57,0,0,1,70.9,104.13Zm0-2.25a3.83,3.83,0,0,0,2-.51,3.56,3.56,0,0,0,1.35-1.47,4.78,4.78,0,0,0,.49-2.22,4.6,4.6,0,0,0-.49-2.19A3.36,3.36,0,0,0,72.89,94a3.83,3.83,0,0,0-2-.51,4,4,0,0,0-2,.51,3.36,3.36,0,0,0-1.35,1.46A4.72,4.72,0,0,0,67,97.68a4.9,4.9,0,0,0,.49,2.22,3.56,3.56,0,0,0,1.35,1.47A4,4,0,0,0,70.9,101.88Zm10.82-6.3a3.42,3.42,0,0,1,3.06-1.7v2.65h-.67a2.6,2.6,0,0,0-1.8.56A2.57,2.57,0,0,0,81.72,99v5H79.2V94h2.52ZM85.83,99a5.78,5.78,0,0,1,.59-2.68,4.45,4.45,0,0,1,1.66-1.8,4.39,4.39,0,0,1,2.32-.63,4.12,4.12,0,0,1,1.85.43,3.66,3.66,0,0,1,1.41,1.11V90.68h2.55V104H93.66v-1.48a3.39,3.39,0,0,1-1.32,1.19,4.11,4.11,0,0,1-2,.45,4.19,4.19,0,0,1-2.3-.65,4.55,4.55,0,0,1-1.66-1.81A6,6,0,0,1,85.83,99Zm7.84,0a3.16,3.16,0,0,0-.36-1.56,2.43,2.43,0,0,0-1-1,2.61,2.61,0,0,0-2.61,0,2.7,2.7,0,0,0-1,1A3.14,3.14,0,0,0,88.4,99a3.32,3.32,0,0,0,.36,1.58,2.76,2.76,0,0,0,1,1A2.52,2.52,0,0,0,91,102a2.72,2.72,0,0,0,1.31-.34,2.62,2.62,0,0,0,1-1A3.3,3.3,0,0,0,93.67,99Zm14.27-.21a5.74,5.74,0,0,1-.07,1h-7.29a2.46,2.46,0,0,0,.76,1.69,2.31,2.31,0,0,0,1.63.61,2.05,2.05,0,0,0,2-1.2h2.72a4.59,4.59,0,0,1-1.65,2.37,4.83,4.83,0,0,1-3,.92,5.31,5.31,0,0,1-2.59-.63,4.68,4.68,0,0,1-1.79-1.82,6.12,6.12,0,0,1,0-5.41,4.39,4.39,0,0,1,1.77-1.8,5.28,5.28,0,0,1,2.61-.63,5.19,5.19,0,0,1,2.54.61,4.29,4.29,0,0,1,1.74,1.74A5.19,5.19,0,0,1,107.94,98.8Zm-2.61-.72a2,2,0,0,0-.7-1.55,2.42,2.42,0,0,0-1.67-.59,2.33,2.33,0,0,0-1.59.57,2.45,2.45,0,0,0-.77,1.57Zm7-2.5a3.67,3.67,0,0,1,1.26-1.25,3.59,3.59,0,0,1,1.8-.45v2.65h-.66a2.1,2.1,0,0,0-2.4,2.5v5h-2.52V94h2.52Zm8.4,3.4a5.91,5.91,0,0,1,.59-2.68,4.55,4.55,0,0,1,1.64-1.8,4.42,4.42,0,0,1,2.32-.63,4,4,0,0,1,2,.45,4,4,0,0,1,1.35,1.13V94h2.54v10h-2.54v-1.46a3.87,3.87,0,0,1-1.35,1.17,4.14,4.14,0,0,1-2,.45,4.25,4.25,0,0,1-2.31-.65,4.65,4.65,0,0,1-1.64-1.81A6.11,6.11,0,0,1,120.7,99Zm7.85,0a3.16,3.16,0,0,0-.36-1.56,2.49,2.49,0,0,0-1-1,2.57,2.57,0,0,0-1.32-.36,2.49,2.49,0,0,0-1.29.34,2.72,2.72,0,0,0-1,1,3.14,3.14,0,0,0-.36,1.55,3.32,3.32,0,0,0,.36,1.58,2.78,2.78,0,0,0,1,1,2.49,2.49,0,0,0,1.29.36,2.76,2.76,0,0,0,1.32-.34,2.69,2.69,0,0,0,1-1A3.3,3.3,0,0,0,128.55,99Zm4.35,0a5.55,5.55,0,0,1,.63-2.7,4.4,4.4,0,0,1,1.75-1.8,5,5,0,0,1,2.55-.64,4.85,4.85,0,0,1,3.06.93,4.46,4.46,0,0,1,1.64,2.59h-2.72a1.88,1.88,0,0,0-.74-1,2,2,0,0,0-1.26-.38,2.06,2.06,0,0,0-1.71.79,3.42,3.42,0,0,0-.63,2.21,3.49,3.49,0,0,0,.63,2.22,2.1,2.1,0,0,0,1.71.77,1.91,1.91,0,0,0,2-1.37h2.72a4.63,4.63,0,0,1-1.64,2.58,4.84,4.84,0,0,1-3.06,1,5.08,5.08,0,0,1-2.55-.63,4.52,4.52,0,0,1-1.75-1.8A5.63,5.63,0,0,1,132.9,99Zm10.83,0a5.55,5.55,0,0,1,.63-2.7,4.44,4.44,0,0,1,1.74-1.8,5,5,0,0,1,2.56-.64,4.85,4.85,0,0,1,3.06.93,4.46,4.46,0,0,1,1.64,2.59h-2.72a1.88,1.88,0,0,0-.74-1,2,2,0,0,0-1.26-.38,2.06,2.06,0,0,0-1.71.79A3.42,3.42,0,0,0,146.3,99a3.49,3.49,0,0,0,.63,2.22,2.1,2.1,0,0,0,1.71.77,1.91,1.91,0,0,0,2-1.37h2.72a4.63,4.63,0,0,1-1.64,2.58,4.88,4.88,0,0,1-3.06,1,5.14,5.14,0,0,1-2.56-.63,4.57,4.57,0,0,1-1.74-1.8A5.63,5.63,0,0,1,143.73,99Zm20.74-.21a5.74,5.74,0,0,1-.07,1h-7.29a2.46,2.46,0,0,0,.76,1.69,2.32,2.32,0,0,0,1.64.61,2,2,0,0,0,2-1.2h2.72a4.59,4.59,0,0,1-1.65,2.37,4.83,4.83,0,0,1-3,.92,5.31,5.31,0,0,1-2.59-.63,4.58,4.58,0,0,1-1.78-1.82,6.12,6.12,0,0,1,0-5.41A4.36,4.36,0,0,1,157,94.5a5.31,5.31,0,0,1,2.61-.63,5.19,5.19,0,0,1,2.54.61,4.23,4.23,0,0,1,1.74,1.74A5.19,5.19,0,0,1,164.47,98.8Zm-2.61-.72a2,2,0,0,0-.7-1.55,2.42,2.42,0,0,0-1.67-.59,2.33,2.33,0,0,0-1.59.57,2.5,2.5,0,0,0-.77,1.57Zm7-2.61a3.82,3.82,0,0,1,1.33-1.14,4.12,4.12,0,0,1,2-.46,4.3,4.3,0,0,1,2.3.63,4.34,4.34,0,0,1,1.64,1.8,5.58,5.58,0,0,1,.61,2.68,5.86,5.86,0,0,1-.61,2.72,4.43,4.43,0,0,1-1.64,1.81,4.42,4.42,0,0,1-4.25.2,4.29,4.29,0,0,1-1.35-1.13v6.17h-2.52V94h2.52ZM174.11,99a3,3,0,0,0-.38-1.55,2.57,2.57,0,0,0-3.57-1,2.7,2.7,0,0,0-1,1,3.21,3.21,0,0,0-.36,1.56,3.25,3.25,0,0,0,.36,1.57,2.92,2.92,0,0,0,1,1,2.74,2.74,0,0,0,1.3.34,2.47,2.47,0,0,0,1.3-.36,2.61,2.61,0,0,0,1-1A3.16,3.16,0,0,0,174.11,99Zm7.34-2.88v4.82a1,1,0,0,0,.23.74,1.29,1.29,0,0,0,.83.22h1.17V104H182.1q-3.19,0-3.19-3.1V96.1h-1.19V94h1.19V91.56h2.54V94h2.23V96.1Zm13.31,2.7a5.74,5.74,0,0,1-.07,1H187.4a2.49,2.49,0,0,0,.75,1.69,2.35,2.35,0,0,0,1.64.61,2.05,2.05,0,0,0,2-1.2h2.72a4.55,4.55,0,0,1-1.66,2.37,4.78,4.78,0,0,1-3,.92,5.28,5.28,0,0,1-2.59-.63,4.61,4.61,0,0,1-1.79-1.82,6.12,6.12,0,0,1,0-5.41,4.39,4.39,0,0,1,1.77-1.8,5.25,5.25,0,0,1,2.61-.63,5.15,5.15,0,0,1,2.53.61,4.25,4.25,0,0,1,1.75,1.74A5.19,5.19,0,0,1,194.76,98.8Zm-2.61-.72a2,2,0,0,0-.7-1.55,2.46,2.46,0,0,0-1.68-.59,2.31,2.31,0,0,0-1.58.57,2.45,2.45,0,0,0-.77,1.57Zm3.8.9a5.78,5.78,0,0,1,.6-2.68,4.36,4.36,0,0,1,4-2.43,4.16,4.16,0,0,1,1.86.43,3.62,3.62,0,0,1,1.4,1.11V90.68h2.56V104h-2.56v-1.48a3.36,3.36,0,0,1-1.31,1.19,4.14,4.14,0,0,1-2,.45,4.25,4.25,0,0,1-2.31-.65,4.53,4.53,0,0,1-1.65-1.81A6,6,0,0,1,196,99Zm7.85,0a3.16,3.16,0,0,0-.36-1.56,2.43,2.43,0,0,0-1-1,2.57,2.57,0,0,0-1.32-.36,2.51,2.51,0,0,0-1.29.34,2.62,2.62,0,0,0-1,1,3.14,3.14,0,0,0-.36,1.55,3.32,3.32,0,0,0,.36,1.58,2.68,2.68,0,0,0,1,1,2.52,2.52,0,0,0,1.29.36,2.76,2.76,0,0,0,1.32-.34,2.62,2.62,0,0,0,1-1A3.3,3.3,0,0,0,203.8,99Z"/></svg>