<svg width="203" height="100" viewBox="0 0 203 100" fill="none" xmlns="http://www.w3.org/2000/svg">
<path d="M101 5.6665C95.3963 5.6665 89.9183 7.32822 85.2589 10.4415C80.5995 13.5548 76.968 17.9799 74.8235 23.1571C72.679 28.3344 72.1179 34.0313 73.2112 39.5274C74.3044 45.0235 77.0029 50.072 80.9654 54.0345C84.9279 57.997 89.9764 60.6955 95.4725 61.7888C100.969 62.882 106.666 62.3209 111.843 60.1764C117.02 58.0319 121.445 54.4004 124.558 49.741C127.672 45.0816 129.333 39.6036 129.333 33.9998C129.333 30.2791 128.601 26.5947 127.177 23.1571C125.753 19.7196 123.666 16.5961 121.035 13.9651C118.404 11.3342 115.28 9.24713 111.843 7.82325C108.405 6.39937 104.721 5.6665 101 5.6665ZM101 56.6665C96.5171 56.6665 92.1347 55.3371 88.4072 52.8465C84.6797 50.3558 81.7744 46.8158 80.0588 42.674C78.3432 38.5322 77.8944 33.9747 78.769 29.5778C79.6436 25.1809 81.8024 21.1421 84.9723 17.9721C88.1423 14.8021 92.1811 12.6433 96.578 11.7687C100.975 10.8941 105.532 11.343 109.674 13.0586C113.816 14.7742 117.356 17.6794 119.847 21.4069C122.337 25.1344 123.667 29.5168 123.667 33.9998C123.667 40.0114 121.279 45.7768 117.028 50.0276C112.777 54.2784 107.012 56.6665 101 56.6665Z" fill="black"/>
<path d="M112.333 31.1668H103.833V22.6668C103.833 21.9154 103.535 21.1947 103.004 20.6634C102.472 20.132 101.752 19.8335 101 19.8335C100.249 19.8335 99.528 20.132 98.9966 20.6634C98.4653 21.1947 98.1667 21.9154 98.1667 22.6668V34.0002C98.1667 34.7516 98.4653 35.4723 98.9966 36.0036C99.528 36.535 100.249 36.8335 101 36.8335H112.333C113.085 36.8335 113.806 36.535 114.337 36.0036C114.868 35.4723 115.167 34.7516 115.167 34.0002C115.167 33.2487 114.868 32.5281 114.337 31.9967C113.806 31.4653 113.085 31.1668 112.333 31.1668Z" fill="black"/>
<path d="M40.027 84.324C40.027 84.996 39.865 85.626 39.541 86.214C39.229 86.802 38.731 87.276 38.047 87.636C37.375 87.996 36.523 88.176 35.491 88.176H33.385V93H30.865V80.436H35.491C36.463 80.436 37.291 80.604 37.975 80.94C38.659 81.276 39.169 81.738 39.505 82.326C39.853 82.914 40.027 83.58 40.027 84.324ZM35.383 86.142C36.079 86.142 36.595 85.986 36.931 85.674C37.267 85.35 37.435 84.9 37.435 84.324C37.435 83.1 36.751 82.488 35.383 82.488H33.385V86.142H35.383ZM44.3362 84.576C44.6602 84.048 45.0802 83.634 45.5962 83.334C46.1242 83.034 46.7242 82.884 47.3962 82.884V85.53H46.7302C45.9382 85.53 45.3382 85.716 44.9302 86.088C44.5342 86.46 44.3362 87.108 44.3362 88.032V93H41.8162V83.028H44.3362V84.576ZM58.3636 87.798C58.3636 88.158 58.3396 88.482 58.2916 88.77H51.0016C51.0616 89.49 51.3136 90.054 51.7576 90.462C52.2016 90.87 52.7476 91.074 53.3956 91.074C54.3316 91.074 54.9976 90.672 55.3936 89.868H58.1116C57.8236 90.828 57.2716 91.62 56.4556 92.244C55.6396 92.856 54.6376 93.162 53.4496 93.162C52.4896 93.162 51.6256 92.952 50.8576 92.532C50.1016 92.1 49.5076 91.494 49.0756 90.714C48.6556 89.934 48.4456 89.034 48.4456 88.014C48.4456 86.982 48.6556 86.076 49.0756 85.296C49.4956 84.516 50.0836 83.916 50.8396 83.496C51.5956 83.076 52.4656 82.866 53.4496 82.866C54.3976 82.866 55.2436 83.07 55.9876 83.478C56.7436 83.886 57.3256 84.468 57.7336 85.224C58.1536 85.968 58.3636 86.826 58.3636 87.798ZM55.7536 87.078C55.7416 86.43 55.5076 85.914 55.0516 85.53C54.5956 85.134 54.0376 84.936 53.3776 84.936C52.7536 84.936 52.2256 85.128 51.7936 85.512C51.3736 85.884 51.1156 86.406 51.0196 87.078H55.7536ZM62.7229 84.468C63.0469 84.012 63.4909 83.634 64.0549 83.334C64.6309 83.022 65.2849 82.866 66.0169 82.866C66.8689 82.866 67.6369 83.076 68.3209 83.496C69.0169 83.916 69.5629 84.516 69.9589 85.296C70.3669 86.064 70.5709 86.958 70.5709 87.978C70.5709 88.998 70.3669 89.904 69.9589 90.696C69.5629 91.476 69.0169 92.082 68.3209 92.514C67.6369 92.946 66.8689 93.162 66.0169 93.162C65.2849 93.162 64.6369 93.012 64.0729 92.712C63.5209 92.412 63.0709 92.034 62.7229 91.578V97.752H60.2029V83.028H62.7229V84.468ZM67.9969 87.978C67.9969 87.378 67.8709 86.862 67.6189 86.43C67.3789 85.986 67.0549 85.65 66.6469 85.422C66.2509 85.194 65.8189 85.08 65.3509 85.08C64.8949 85.08 64.4629 85.2 64.0549 85.44C63.6589 85.668 63.3349 86.004 63.0829 86.448C62.8429 86.892 62.7229 87.414 62.7229 88.014C62.7229 88.614 62.8429 89.136 63.0829 89.58C63.3349 90.024 63.6589 90.366 64.0549 90.606C64.4629 90.834 64.8949 90.948 65.3509 90.948C65.8189 90.948 66.2509 90.828 66.6469 90.588C67.0549 90.348 67.3789 90.006 67.6189 89.562C67.8709 89.118 67.9969 88.59 67.9969 87.978ZM71.7542 87.978C71.7542 86.97 71.9522 86.076 72.3482 85.296C72.7562 84.516 73.3022 83.916 73.9862 83.496C74.6822 83.076 75.4562 82.866 76.3082 82.866C77.0522 82.866 77.7002 83.016 78.2522 83.316C78.8162 83.616 79.2662 83.994 79.6022 84.45V83.028H82.1402V93H79.6022V91.542C79.2782 92.01 78.8282 92.4 78.2522 92.712C77.6882 93.012 77.0342 93.162 76.2902 93.162C75.4502 93.162 74.6822 92.946 73.9862 92.514C73.3022 92.082 72.7562 91.476 72.3482 90.696C71.9522 89.904 71.7542 88.998 71.7542 87.978ZM79.6022 88.014C79.6022 87.402 79.4822 86.88 79.2422 86.448C79.0022 86.004 78.6782 85.668 78.2702 85.44C77.8622 85.2 77.4242 85.08 76.9562 85.08C76.4882 85.08 76.0562 85.194 75.6602 85.422C75.2642 85.65 74.9402 85.986 74.6882 86.43C74.4482 86.862 74.3282 87.378 74.3282 87.978C74.3282 88.578 74.4482 89.106 74.6882 89.562C74.9402 90.006 75.2642 90.348 75.6602 90.588C76.0682 90.828 76.5002 90.948 76.9562 90.948C77.4242 90.948 77.8622 90.834 78.2702 90.606C78.6782 90.366 79.0022 90.03 79.2422 89.598C79.4822 89.154 79.6022 88.626 79.6022 88.014ZM87.1214 84.576C87.4454 84.048 87.8654 83.634 88.3814 83.334C88.9094 83.034 89.5094 82.884 90.1814 82.884V85.53H89.5154C88.7234 85.53 88.1234 85.716 87.7154 86.088C87.3194 86.46 87.1214 87.108 87.1214 88.032V93H84.6014V83.028H87.1214V84.576ZM93.1567 81.84C92.7127 81.84 92.3407 81.702 92.0407 81.426C91.7527 81.138 91.6087 80.784 91.6087 80.364C91.6087 79.944 91.7527 79.596 92.0407 79.32C92.3407 79.032 92.7127 78.888 93.1567 78.888C93.6007 78.888 93.9667 79.032 94.2547 79.32C94.5547 79.596 94.7047 79.944 94.7047 80.364C94.7047 80.784 94.5547 81.138 94.2547 81.426C93.9667 81.702 93.6007 81.84 93.1567 81.84ZM94.3987 83.028V93H91.8787V83.028H94.3987ZM102.414 82.884C103.602 82.884 104.562 83.262 105.294 84.018C106.026 84.762 106.392 85.806 106.392 87.15V93H103.872V87.492C103.872 86.7 103.674 86.094 103.278 85.674C102.882 85.242 102.342 85.026 101.658 85.026C100.962 85.026 100.41 85.242 100.002 85.674C99.6065 86.094 99.4085 86.7 99.4085 87.492V93H96.8885V83.028H99.4085V84.27C99.7445 83.838 100.17 83.502 100.686 83.262C101.214 83.01 101.79 82.884 102.414 82.884ZM112.695 82.866C113.439 82.866 114.093 83.016 114.657 83.316C115.221 83.604 115.665 83.982 115.989 84.45V83.028H118.527V93.072C118.527 93.996 118.341 94.818 117.969 95.538C117.597 96.27 117.039 96.846 116.295 97.266C115.551 97.698 114.651 97.914 113.595 97.914C112.179 97.914 111.015 97.584 110.103 96.924C109.203 96.264 108.693 95.364 108.573 94.224H111.075C111.207 94.68 111.489 95.04 111.921 95.304C112.365 95.58 112.899 95.718 113.523 95.718C114.255 95.718 114.849 95.496 115.305 95.052C115.761 94.62 115.989 93.96 115.989 93.072V91.524C115.665 91.992 115.215 92.382 114.639 92.694C114.075 93.006 113.427 93.162 112.695 93.162C111.855 93.162 111.087 92.946 110.391 92.514C109.695 92.082 109.143 91.476 108.735 90.696C108.339 89.904 108.141 88.998 108.141 87.978C108.141 86.97 108.339 86.076 108.735 85.296C109.143 84.516 109.689 83.916 110.373 83.496C111.069 83.076 111.843 82.866 112.695 82.866ZM115.989 88.014C115.989 87.402 115.869 86.88 115.629 86.448C115.389 86.004 115.065 85.668 114.657 85.44C114.249 85.2 113.811 85.08 113.343 85.08C112.875 85.08 112.443 85.194 112.047 85.422C111.651 85.65 111.327 85.986 111.075 86.43C110.835 86.862 110.715 87.378 110.715 87.978C110.715 88.578 110.835 89.106 111.075 89.562C111.327 90.006 111.651 90.348 112.047 90.588C112.455 90.828 112.887 90.948 113.343 90.948C113.811 90.948 114.249 90.834 114.657 90.606C115.065 90.366 115.389 90.03 115.629 89.598C115.869 89.154 115.989 88.626 115.989 88.014ZM129.705 93.162C128.745 93.162 127.881 92.952 127.113 92.532C126.345 92.1 125.739 91.494 125.295 90.714C124.863 89.934 124.647 89.034 124.647 88.014C124.647 86.994 124.869 86.094 125.313 85.314C125.769 84.534 126.387 83.934 127.167 83.514C127.947 83.082 128.817 82.866 129.777 82.866C130.737 82.866 131.607 83.082 132.387 83.514C133.167 83.934 133.779 84.534 134.223 85.314C134.679 86.094 134.907 86.994 134.907 88.014C134.907 89.034 134.673 89.934 134.205 90.714C133.749 91.494 133.125 92.1 132.333 92.532C131.553 92.952 130.677 93.162 129.705 93.162ZM129.705 90.966C130.161 90.966 130.587 90.858 130.983 90.642C131.391 90.414 131.715 90.078 131.955 89.634C132.195 89.19 132.315 88.65 132.315 88.014C132.315 87.066 132.063 86.34 131.559 85.836C131.067 85.32 130.461 85.062 129.741 85.062C129.021 85.062 128.415 85.32 127.923 85.836C127.443 86.34 127.203 87.066 127.203 88.014C127.203 88.962 127.437 89.694 127.905 90.21C128.385 90.714 128.985 90.966 129.705 90.966ZM139.276 84.576C139.6 84.048 140.02 83.634 140.536 83.334C141.064 83.034 141.664 82.884 142.336 82.884V85.53H141.67C140.878 85.53 140.278 85.716 139.87 86.088C139.474 86.46 139.276 87.108 139.276 88.032V93H136.756V83.028H139.276V84.576ZM143.385 87.978C143.385 86.97 143.583 86.076 143.979 85.296C144.387 84.516 144.939 83.916 145.635 83.496C146.331 83.076 147.105 82.866 147.957 82.866C148.605 82.866 149.223 83.01 149.811 83.298C150.399 83.574 150.867 83.946 151.215 84.414V79.68H153.771V93H151.215V91.524C150.903 92.016 150.465 92.412 149.901 92.712C149.337 93.012 148.683 93.162 147.939 93.162C147.099 93.162 146.331 92.946 145.635 92.514C144.939 92.082 144.387 91.476 143.979 90.696C143.583 89.904 143.385 88.998 143.385 87.978ZM151.233 88.014C151.233 87.402 151.113 86.88 150.873 86.448C150.633 86.004 150.309 85.668 149.901 85.44C149.493 85.2 149.055 85.08 148.587 85.08C148.119 85.08 147.687 85.194 147.291 85.422C146.895 85.65 146.571 85.986 146.319 86.43C146.079 86.862 145.959 87.378 145.959 87.978C145.959 88.578 146.079 89.106 146.319 89.562C146.571 90.006 146.895 90.348 147.291 90.588C147.699 90.828 148.131 90.948 148.587 90.948C149.055 90.948 149.493 90.834 149.901 90.606C150.309 90.366 150.633 90.03 150.873 89.598C151.113 89.154 151.233 88.626 151.233 88.014ZM165.502 87.798C165.502 88.158 165.478 88.482 165.43 88.77H158.14C158.2 89.49 158.452 90.054 158.896 90.462C159.34 90.87 159.886 91.074 160.534 91.074C161.47 91.074 162.136 90.672 162.532 89.868H165.25C164.962 90.828 164.41 91.62 163.594 92.244C162.778 92.856 161.776 93.162 160.588 93.162C159.628 93.162 158.764 92.952 157.996 92.532C157.24 92.1 156.646 91.494 156.214 90.714C155.794 89.934 155.584 89.034 155.584 88.014C155.584 86.982 155.794 86.076 156.214 85.296C156.634 84.516 157.222 83.916 157.978 83.496C158.734 83.076 159.604 82.866 160.588 82.866C161.536 82.866 162.382 83.07 163.126 83.478C163.882 83.886 164.464 84.468 164.872 85.224C165.292 85.968 165.502 86.826 165.502 87.798ZM162.892 87.078C162.88 86.43 162.646 85.914 162.19 85.53C161.734 85.134 161.176 84.936 160.516 84.936C159.892 84.936 159.364 85.128 158.932 85.512C158.512 85.884 158.254 86.406 158.158 87.078H162.892ZM169.862 84.576C170.186 84.048 170.606 83.634 171.122 83.334C171.65 83.034 172.25 82.884 172.922 82.884V85.53H172.256C171.464 85.53 170.864 85.716 170.456 86.088C170.06 86.46 169.862 87.108 169.862 88.032V93H167.342V83.028H169.862V84.576Z" fill="black"/>
</svg>
