<?xml version="1.0" encoding="utf-8"?>
<!-- Generator: Adobe Illustrator 25.2.3, SVG Export Plug-In . SVG Version: 6.00 Build 0)  -->
<svg version="1.1" id="Layer_1" xmlns="http://www.w3.org/2000/svg" xmlns:xlink="http://www.w3.org/1999/xlink" x="0px" y="0px"
	 viewBox="0 0 24 24" style="enable-background:new 0 0 24 24;" xml:space="preserve">
<style type="text/css">
	.st0{fill:#343331;fill-opacity:0;}
	.st1{fill:#343331;}
</style>
<g>
	<g>
		<rect class="st0" width="24" height="24"/>
		<path class="st1" d="M12,2C6.5,2,2,6.5,2,12s4.5,10,10,10s10-4.5,10-10S17.5,2,12,2z M12,20c-4.4,0-8-3.6-8-8s3.6-8,8-8s8,3.6,8,8
			S16.4,20,12,20z"/>
		<path class="st1" d="M12,6c-1.9,0-3.5,1.6-3.5,3.5c0,0.6,0.4,1,1,1s1-0.4,1-1C10.5,8.7,11.2,8,12,8s1.5,0.7,1.5,1.5S12.8,11,12,11
			c-0.6,0-1,0.4-1,1v2c0,0.6,0.4,1,1,1s1-0.4,1-1v-1.2c1.9-0.5,2.9-2.5,2.4-4.3C14.9,7,13.6,6,12,6z"/>
		<circle class="st1" cx="12" cy="17" r="1"/>
	</g>
</g>
</svg>
