<svg width="21" height="28" viewBox="0 0 21 28" fill="none" xmlns="http://www.w3.org/2000/svg">
<path fill-rule="evenodd" clip-rule="evenodd" d="M16.0915 27.3513C15.6645 27.2279 15.232 26.7197 15.1408 26.2349C15.0819 25.9191 15.1542 25.699 15.6067 24.8239C17.4369 21.2835 18.232 18.0267 18.232 14.0728C18.232 10.2522 17.527 7.27893 15.7791 3.71523C15.4032 2.95023 15.0952 2.23971 15.0952 2.13741C15.0952 1.75825 15.4132 1.20896 15.7568 0.993249C16.2283 0.697479 17.0177 0.753075 17.3947 1.10778C17.5403 1.24343 17.9173 1.86277 18.2342 2.48322C19.4851 4.94167 20.3424 7.63696 20.766 10.4434C21.0273 12.1803 21.0807 15.4715 20.8705 17.0616C20.4847 19.9948 19.7108 22.6112 18.471 25.1753C17.7216 26.7253 17.2512 27.3624 16.8576 27.3624C16.7787 27.3624 16.6508 27.3824 16.573 27.4069C16.494 27.4302 16.2783 27.4058 16.0915 27.3513ZM10.9989 24.6871C10.344 24.497 9.87144 23.6931 10.0605 23.0904C10.1061 22.9448 10.4152 22.2732 10.7454 21.5982C12.1475 18.7395 12.7302 15.6761 12.4444 12.6673C12.2098 10.1966 11.7673 8.63658 10.6509 6.35603C9.90257 4.82603 9.8681 4.58919 10.3029 3.97208C10.7165 3.38721 11.7495 3.29159 12.2921 3.78973C12.669 4.13442 13.8388 6.57842 14.2902 7.96164C15.7846 12.5405 15.5567 17.4552 13.6408 21.954C12.6601 24.2579 11.9719 24.9707 10.9989 24.6871ZM5.74622 21.9852C5.34148 21.8028 4.99345 21.3747 4.89894 20.9433C4.84112 20.6809 4.94008 20.3896 5.42043 19.4166C7.18504 15.844 7.20395 12.4026 5.47825 8.91345C4.72103 7.38122 4.70435 7.07545 5.34482 6.47167C5.66171 6.17257 5.79514 6.12031 6.23991 6.12031C6.98379 6.12031 7.37073 6.49502 8.03677 7.86157C9.05974 9.96421 9.47893 11.7889 9.4756 14.1261C9.47226 16.529 9.07975 18.178 7.98674 20.3951C7.35961 21.6649 7.0505 21.9996 6.42338 22.0863C6.23213 22.1119 5.92746 22.0663 5.74622 21.9852ZM0.845993 19.4678C0.524649 19.3355 0.158828 18.8996 0.0498595 18.5193C-0.0713396 18.0957 0.0276212 17.7599 0.509082 16.9682C1.12842 15.9497 1.27297 15.4037 1.27297 14.0728C1.27297 12.7418 1.12842 12.1958 0.509082 11.1773C0.298929 10.8326 0.0887767 10.419 0.0409641 10.2589C-0.159181 9.58727 0.400114 8.76445 1.15177 8.62435C1.78779 8.50426 2.22588 8.78891 2.81075 9.70291C4.50532 12.3482 4.50532 15.8818 2.80964 18.5049C2.21143 19.4311 1.54539 19.758 0.845993 19.4678Z" fill="#343331"/>
</svg>
