<?xml version="1.0" encoding="utf-8"?>
<!-- Generator: Adobe Illustrator 25.2.3, SVG Export Plug-In . SVG Version: 6.00 Build 0)  -->
<svg version="1.1" id="Capa_1" xmlns="http://www.w3.org/2000/svg" xmlns:xlink="http://www.w3.org/1999/xlink" x="0px" y="0px"
	 viewBox="0 0 214.5 205.1" style="enable-background:new 0 0 214.5 205.1;" xml:space="preserve">
<g>
	<g>
		<path d="M121.2,190.3h-6.6v-65.4h38.9c4,0,7.3-3.3,7.3-7.3s-3.3-7.3-7.3-7.3H61.1c-4,0-7.3,3.3-7.3,7.3s3.3,7.3,7.3,7.3H100v65.4
			h-6.6c-4,0-7.3,3.3-7.3,7.3s3.3,7.3,7.3,7.3h27.8c4,0,7.3-3.3,7.3-7.3C128.4,193.6,125.2,190.3,121.2,190.3z"/>
		<path d="M73.8,156.5c0-4-3.3-7.3-7.3-7.3H54.8H34.2c-11.1,0-13.4-16.1-13.5-16.9l-6.2-45c-0.6-4-4.2-6.7-8.2-6.2s-6.8,4.2-6.2,8.2
			l6.2,45.1c0.8,6.5,4.2,16.6,11.4,23.1l-7.5,39c-0.8,3.9,1.8,7.8,5.8,8.5c3.9,0.8,7.8-1.8,8.5-5.8l6.8-35.3h17.6l6.8,35.3
			c0.7,3.5,3.7,5.9,7.1,5.9c0.5,0,0.9,0,1.4-0.1c3.9-0.8,6.5-4.6,5.8-8.5l-6.3-32.6h2.9C70.5,163.8,73.8,160.5,73.8,156.5z"/>
		<path d="M208.3,81.1c-4-0.5-7.6,2.2-8.2,6.2l-6.2,45.2c-0.1,0.7-2.4,16.8-13.5,16.8h-20.6H148c-4,0-7.3,3.3-7.3,7.3
			s3.3,7.3,7.3,7.3h2.9l-6.3,32.6c-0.8,3.9,1.8,7.8,5.8,8.5c3.9,0.8,7.8-1.8,8.5-5.8l6.8-35.3h17.6l6.8,35.3
			c0.7,3.5,3.7,5.9,7.1,5.9c0.5,0,0.9,0,1.4-0.1c3.9-0.8,6.5-4.6,5.8-8.5l-7.5-39c7.2-6.5,10.5-16.6,11.4-23.1l6.2-45.1
			C215,85.3,212.2,81.6,208.3,81.1z"/>
	</g>
</g>
</svg>
