<svg width="22" height="25" viewBox="0 0 22 25" fill="none" xmlns="http://www.w3.org/2000/svg">
<g clip-path="url(#clip0)">
<path fill-rule="evenodd" clip-rule="evenodd" d="M10.6343 16.716C12.7092 16.0837 14.4646 15.7657 15.9006 15.7622C18.2746 15.7563 20.2649 16.2275 21.8717 17.1758V10.2798C20.2568 9.44364 18.4321 8.99729 16.3976 8.94076C14.3631 8.88423 12.442 9.29853 10.6343 10.1837V16.716Z" fill="#343331"/>
<path fill-rule="evenodd" clip-rule="evenodd" d="M7.26306 9.20783L9.82392 15.303V9.46158C11.1732 8.73913 12.6016 8.27614 14.1091 8.0726C15.6166 7.86907 17.3301 7.90188 19.2497 8.17105L17.8569 4.84357C15.8391 4.71328 13.9169 5.03833 12.0904 5.81872C10.2638 6.59911 8.6547 7.72881 7.26306 9.20783Z" fill="#343331"/>
<path d="M12.3336 4.88404C12.1099 4.34028 11.7743 3.52465 11.3269 2.43714C10.8561 1.29263 9.55214 0.745653 8.4145 1.21542L1.45209 4.09045C0.314449 4.56022 -0.226083 5.86885 0.244775 7.01335L6.94511 23.2998C7.41597 24.4443 8.71992 24.9912 9.85755 24.5215L16.82 21.6464C17.9576 21.1767 18.4981 19.868 18.0273 18.7235C17.6029 17.6921 17.3261 17.0191 17.1966 16.7044C16.8179 16.6823 16.5408 16.6691 16.3653 16.6646C16.18 16.66 15.916 16.6596 15.5732 16.6635C15.74 17.0689 16.1003 17.9446 16.654 19.2906C16.811 19.6721 16.6308 20.1083 16.2516 20.2649L9.28918 23.1399C8.90996 23.2965 8.47532 23.1142 8.31836 22.7327L1.61802 6.44629C1.46107 6.06479 1.64125 5.62858 2.02046 5.47199L8.98287 2.59696C9.36209 2.44037 9.79674 2.6227 9.95369 3.0042L10.9712 5.47745C11.2857 5.32373 11.5275 5.21294 11.6966 5.14507C11.8656 5.0772 12.078 4.99019 12.3336 4.88404Z" fill="#343331"/>
</g>
<defs>
<clipPath id="clip0">
<rect width="22" height="24" fill="white" transform="translate(0 0.810852)"/>
</clipPath>
</defs>
</svg>
