<svg width="203" height="95" viewBox="0 0 203 95" fill="none" xmlns="http://www.w3.org/2000/svg">
<path d="M95.4369 51.0002C95.0484 50.999 94.6643 50.9179 94.3085 50.7619C93.9527 50.6059 93.6328 50.3784 93.3686 50.0936L79.5986 35.4452C79.0838 34.8967 78.8081 34.1661 78.832 33.4142C78.8559 32.6624 79.1775 31.9508 79.7261 31.4361C80.2746 30.9213 81.0052 30.6456 81.7571 30.6695C82.5089 30.6934 83.2205 31.015 83.7352 31.5636L95.4086 44.0019L119.237 17.9352C119.479 17.6341 119.78 17.3856 120.121 17.205C120.462 17.0244 120.837 16.9154 121.222 16.8849C121.607 16.8543 121.994 16.9028 122.36 17.0273C122.725 17.1518 123.061 17.3498 123.348 17.609C123.634 17.8682 123.864 18.1832 124.024 18.5346C124.185 18.886 124.271 19.2665 124.279 19.6526C124.287 20.0387 124.215 20.4224 124.069 20.7799C123.923 21.1375 123.706 21.4615 123.43 21.7319L97.5336 50.0652C97.2719 50.3552 96.9531 50.588 96.5971 50.7489C96.2412 50.9098 95.8558 50.9954 95.4652 51.0002H95.4369Z" fill="black"/>
<path d="M20.7625 88.126C19.5865 88.126 18.5065 87.85 17.5225 87.298C16.5385 86.746 15.7585 85.984 15.1825 85.012C14.6065 84.028 14.3185 82.918 14.3185 81.682C14.3185 80.458 14.6065 79.36 15.1825 78.388C15.7585 77.404 16.5385 76.636 17.5225 76.084C18.5065 75.532 19.5865 75.256 20.7625 75.256C21.9505 75.256 23.0305 75.532 24.0025 76.084C24.9865 76.636 25.7605 77.404 26.3245 78.388C26.9005 79.36 27.1885 80.458 27.1885 81.682C27.1885 82.918 26.9005 84.028 26.3245 85.012C25.7605 85.984 24.9865 86.746 24.0025 87.298C23.0185 87.85 21.9385 88.126 20.7625 88.126ZM20.7625 85.876C21.5185 85.876 22.1845 85.708 22.7605 85.372C23.3365 85.024 23.7865 84.532 24.1105 83.896C24.4345 83.26 24.5965 82.522 24.5965 81.682C24.5965 80.842 24.4345 80.11 24.1105 79.486C23.7865 78.85 23.3365 78.364 22.7605 78.028C22.1845 77.692 21.5185 77.524 20.7625 77.524C20.0065 77.524 19.3345 77.692 18.7465 78.028C18.1705 78.364 17.7205 78.85 17.3965 79.486C17.0725 80.11 16.9105 80.842 16.9105 81.682C16.9105 82.522 17.0725 83.26 17.3965 83.896C17.7205 84.532 18.1705 85.024 18.7465 85.372C19.3345 85.708 20.0065 85.876 20.7625 85.876ZM31.5833 79.576C31.9073 79.048 32.3273 78.634 32.8433 78.334C33.3713 78.034 33.9713 77.884 34.6433 77.884V80.53H33.9773C33.1853 80.53 32.5853 80.716 32.1773 81.088C31.7813 81.46 31.5833 82.108 31.5833 83.032V88H29.0633V78.028H31.5833V79.576ZM35.6926 82.978C35.6926 81.97 35.8906 81.076 36.2866 80.296C36.6946 79.516 37.2466 78.916 37.9426 78.496C38.6386 78.076 39.4126 77.866 40.2646 77.866C40.9126 77.866 41.5306 78.01 42.1186 78.298C42.7066 78.574 43.1746 78.946 43.5226 79.414V74.68H46.0786V88H43.5226V86.524C43.2106 87.016 42.7726 87.412 42.2086 87.712C41.6446 88.012 40.9906 88.162 40.2466 88.162C39.4066 88.162 38.6386 87.946 37.9426 87.514C37.2466 87.082 36.6946 86.476 36.2866 85.696C35.8906 84.904 35.6926 83.998 35.6926 82.978ZM43.5406 83.014C43.5406 82.402 43.4206 81.88 43.1806 81.448C42.9406 81.004 42.6166 80.668 42.2086 80.44C41.8006 80.2 41.3626 80.08 40.8946 80.08C40.4266 80.08 39.9946 80.194 39.5986 80.422C39.2026 80.65 38.8786 80.986 38.6266 81.43C38.3866 81.862 38.2666 82.378 38.2666 82.978C38.2666 83.578 38.3866 84.106 38.6266 84.562C38.8786 85.006 39.2026 85.348 39.5986 85.588C40.0066 85.828 40.4386 85.948 40.8946 85.948C41.3626 85.948 41.8006 85.834 42.2086 85.606C42.6166 85.366 42.9406 85.03 43.1806 84.598C43.4206 84.154 43.5406 83.626 43.5406 83.014ZM57.8099 82.798C57.8099 83.158 57.7859 83.482 57.7379 83.77H50.4479C50.5079 84.49 50.7599 85.054 51.2039 85.462C51.6479 85.87 52.1939 86.074 52.8419 86.074C53.7779 86.074 54.4439 85.672 54.8399 84.868H57.5579C57.2699 85.828 56.7179 86.62 55.9019 87.244C55.0859 87.856 54.0839 88.162 52.8959 88.162C51.9359 88.162 51.0719 87.952 50.3039 87.532C49.5479 87.1 48.9539 86.494 48.5219 85.714C48.1019 84.934 47.8919 84.034 47.8919 83.014C47.8919 81.982 48.1019 81.076 48.5219 80.296C48.9419 79.516 49.5299 78.916 50.2859 78.496C51.0419 78.076 51.9119 77.866 52.8959 77.866C53.8439 77.866 54.6899 78.07 55.4339 78.478C56.1899 78.886 56.7719 79.468 57.1799 80.224C57.5999 80.968 57.8099 81.826 57.8099 82.798ZM55.1999 82.078C55.1879 81.43 54.9539 80.914 54.4979 80.53C54.0419 80.134 53.4839 79.936 52.8239 79.936C52.1999 79.936 51.6719 80.128 51.2399 80.512C50.8199 80.884 50.5619 81.406 50.4659 82.078H55.1999ZM62.1692 79.576C62.4932 79.048 62.9132 78.634 63.4292 78.334C63.9572 78.034 64.5572 77.884 65.2292 77.884V80.53H64.5632C63.7712 80.53 63.1712 80.716 62.7632 81.088C62.3672 81.46 62.1692 82.108 62.1692 83.032V88H59.6492V78.028H62.1692V79.576ZM72.4936 76.84C72.0496 76.84 71.6776 76.702 71.3776 76.426C71.0896 76.138 70.9456 75.784 70.9456 75.364C70.9456 74.944 71.0896 74.596 71.3776 74.32C71.6776 74.032 72.0496 73.888 72.4936 73.888C72.9376 73.888 73.3036 74.032 73.5916 74.32C73.8916 74.596 74.0416 74.944 74.0416 75.364C74.0416 75.784 73.8916 76.138 73.5916 76.426C73.3036 76.702 72.9376 76.84 72.4936 76.84ZM73.7356 78.028V88H71.2156V78.028H73.7356ZM80.0414 88.162C79.2254 88.162 78.4934 88.018 77.8454 87.73C77.1974 87.43 76.6814 87.028 76.2974 86.524C75.9254 86.02 75.7214 85.462 75.6854 84.85H78.2234C78.2714 85.234 78.4574 85.552 78.7814 85.804C79.1174 86.056 79.5314 86.182 80.0234 86.182C80.5034 86.182 80.8754 86.086 81.1394 85.894C81.4154 85.702 81.5534 85.456 81.5534 85.156C81.5534 84.832 81.3854 84.592 81.0494 84.436C80.7254 84.268 80.2034 84.088 79.4834 83.896C78.7394 83.716 78.1274 83.53 77.6474 83.338C77.1794 83.146 76.7714 82.852 76.4234 82.456C76.0874 82.06 75.9194 81.526 75.9194 80.854C75.9194 80.302 76.0754 79.798 76.3874 79.342C76.7114 78.886 77.1674 78.526 77.7554 78.262C78.3554 77.998 79.0574 77.866 79.8614 77.866C81.0494 77.866 81.9974 78.166 82.7054 78.766C83.4134 79.354 83.8034 80.152 83.8754 81.16H81.4634C81.4274 80.764 81.2594 80.452 80.9594 80.224C80.6714 79.984 80.2814 79.864 79.7894 79.864C79.3334 79.864 78.9794 79.948 78.7274 80.116C78.4874 80.284 78.3674 80.518 78.3674 80.818C78.3674 81.154 78.5354 81.412 78.8714 81.592C79.2074 81.76 79.7294 81.934 80.4374 82.114C81.1574 82.294 81.7514 82.48 82.2194 82.672C82.6874 82.864 83.0894 83.164 83.4254 83.572C83.7734 83.968 83.9534 84.496 83.9654 85.156C83.9654 85.732 83.8034 86.248 83.4794 86.704C83.1674 87.16 82.7114 87.52 82.1114 87.784C81.5234 88.036 80.8334 88.162 80.0414 88.162ZM94.7511 88.162C93.7911 88.162 92.9271 87.952 92.1591 87.532C91.3911 87.1 90.7851 86.494 90.3411 85.714C89.9091 84.934 89.6931 84.034 89.6931 83.014C89.6931 81.994 89.9151 81.094 90.3591 80.314C90.8151 79.534 91.4331 78.934 92.2131 78.514C92.9931 78.082 93.8631 77.866 94.8231 77.866C95.7831 77.866 96.6531 78.082 97.4331 78.514C98.2131 78.934 98.8251 79.534 99.2691 80.314C99.7251 81.094 99.9531 81.994 99.9531 83.014C99.9531 84.034 99.7191 84.934 99.2511 85.714C98.7951 86.494 98.1711 87.1 97.3791 87.532C96.5991 87.952 95.7231 88.162 94.7511 88.162ZM94.7511 85.966C95.2071 85.966 95.6331 85.858 96.0291 85.642C96.4371 85.414 96.7611 85.078 97.0011 84.634C97.2411 84.19 97.3611 83.65 97.3611 83.014C97.3611 82.066 97.1091 81.34 96.6051 80.836C96.1131 80.32 95.5071 80.062 94.7871 80.062C94.0671 80.062 93.4611 80.32 92.9691 80.836C92.4891 81.34 92.2491 82.066 92.2491 83.014C92.2491 83.962 92.4831 84.694 92.9511 85.21C93.4311 85.714 94.0311 85.966 94.7511 85.966ZM107.328 77.884C108.516 77.884 109.476 78.262 110.208 79.018C110.94 79.762 111.306 80.806 111.306 82.15V88H108.786V82.492C108.786 81.7 108.588 81.094 108.192 80.674C107.796 80.242 107.256 80.026 106.572 80.026C105.876 80.026 105.324 80.242 104.916 80.674C104.52 81.094 104.322 81.7 104.322 82.492V88H101.802V78.028H104.322V79.27C104.658 78.838 105.084 78.502 105.6 78.262C106.128 78.01 106.704 77.884 107.328 77.884ZM120.925 80.098V84.922C120.925 85.258 121.003 85.504 121.159 85.66C121.327 85.804 121.603 85.876 121.987 85.876H123.157V88H121.573C119.449 88 118.387 86.968 118.387 84.904V80.098H117.199V78.028H118.387V75.562H120.925V78.028H123.157V80.098H120.925ZM130.586 77.884C131.342 77.884 132.014 78.052 132.602 78.388C133.19 78.712 133.646 79.198 133.97 79.846C134.306 80.482 134.474 81.25 134.474 82.15V88H131.954V82.492C131.954 81.7 131.756 81.094 131.36 80.674C130.964 80.242 130.424 80.026 129.74 80.026C129.044 80.026 128.492 80.242 128.084 80.674C127.688 81.094 127.49 81.7 127.49 82.492V88H124.97V74.68H127.49V79.27C127.814 78.838 128.246 78.502 128.786 78.262C129.326 78.01 129.926 77.884 130.586 77.884ZM146.14 82.798C146.14 83.158 146.116 83.482 146.068 83.77H138.778C138.838 84.49 139.09 85.054 139.534 85.462C139.978 85.87 140.524 86.074 141.172 86.074C142.108 86.074 142.774 85.672 143.17 84.868H145.888C145.6 85.828 145.048 86.62 144.232 87.244C143.416 87.856 142.414 88.162 141.226 88.162C140.266 88.162 139.402 87.952 138.634 87.532C137.878 87.1 137.284 86.494 136.852 85.714C136.432 84.934 136.222 84.034 136.222 83.014C136.222 81.982 136.432 81.076 136.852 80.296C137.272 79.516 137.86 78.916 138.616 78.496C139.372 78.076 140.242 77.866 141.226 77.866C142.174 77.866 143.02 78.07 143.764 78.478C144.52 78.886 145.102 79.468 145.51 80.224C145.93 80.968 146.14 81.826 146.14 82.798ZM143.53 82.078C143.518 81.43 143.284 80.914 142.828 80.53C142.372 80.134 141.814 79.936 141.154 79.936C140.53 79.936 140.002 80.128 139.57 80.512C139.15 80.884 138.892 81.406 138.796 82.078H143.53ZM166.092 78.028L163.176 88H160.458L158.64 81.034L156.822 88H154.086L151.152 78.028H153.708L155.472 85.624L157.38 78.028H160.044L161.916 85.606L163.68 78.028H166.092ZM166.808 82.978C166.808 81.97 167.006 81.076 167.402 80.296C167.81 79.516 168.356 78.916 169.04 78.496C169.736 78.076 170.51 77.866 171.362 77.866C172.106 77.866 172.754 78.016 173.306 78.316C173.87 78.616 174.32 78.994 174.656 79.45V78.028H177.194V88H174.656V86.542C174.332 87.01 173.882 87.4 173.306 87.712C172.742 88.012 172.088 88.162 171.344 88.162C170.504 88.162 169.736 87.946 169.04 87.514C168.356 87.082 167.81 86.476 167.402 85.696C167.006 84.904 166.808 83.998 166.808 82.978ZM174.656 83.014C174.656 82.402 174.536 81.88 174.296 81.448C174.056 81.004 173.732 80.668 173.324 80.44C172.916 80.2 172.478 80.08 172.01 80.08C171.542 80.08 171.11 80.194 170.714 80.422C170.318 80.65 169.994 80.986 169.742 81.43C169.502 81.862 169.382 82.378 169.382 82.978C169.382 83.578 169.502 84.106 169.742 84.562C169.994 85.006 170.318 85.348 170.714 85.588C171.122 85.828 171.554 85.948 172.01 85.948C172.478 85.948 172.916 85.834 173.324 85.606C173.732 85.366 174.056 85.03 174.296 84.598C174.536 84.154 174.656 83.626 174.656 83.014ZM189.195 78.028L183.021 92.716H180.339L182.499 87.748L178.503 78.028H181.329L183.903 84.994L186.513 78.028H189.195Z" fill="black"/>
</svg>
