<svg id="Layer_1" data-name="Layer 1" xmlns="http://www.w3.org/2000/svg" viewBox="0 0 272 127"><defs><style>.cls-1{fill:#343331;}</style></defs><path class="cls-1" d="M137.16,16.75A28.35,28.35,0,1,0,148,18.91,28.27,28.27,0,0,0,137.16,16.75Zm0,51a22.67,22.67,0,1,1,16-6.64A22.65,22.65,0,0,1,137.16,67.75Z"/><path class="cls-1" d="M148.49,42.25H140v-8.5a2.83,2.83,0,0,0-2.83-2.83,2.87,2.87,0,0,0-2,.83,2.83,2.83,0,0,0-.83,2V45.09a2.83,2.83,0,0,0,.83,2,2.87,2.87,0,0,0,2,.83h11.33a2.87,2.87,0,0,0,2-.83,2.84,2.84,0,0,0,0-4A2.87,2.87,0,0,0,148.49,42.25Z"/><path class="cls-1" d="M76.19,95.41a3.91,3.91,0,0,1-.49,1.89,3.42,3.42,0,0,1-1.49,1.42,5.42,5.42,0,0,1-2.56.54H69.54v4.83H67V91.52h4.63a5.51,5.51,0,0,1,2.48.51,3.34,3.34,0,0,1,1.53,1.38A3.86,3.86,0,0,1,76.19,95.41Zm-4.65,1.82a2.23,2.23,0,0,0,1.55-.47,1.76,1.76,0,0,0,.5-1.35c0-1.22-.68-1.84-2-1.84h-2v3.66Zm8.95-1.57a3.64,3.64,0,0,1,1.26-1.24,3.59,3.59,0,0,1,1.8-.45v2.65h-.66a2.09,2.09,0,0,0-2.4,2.5v5H78v-10h2.52Zm14,3.22a5.86,5.86,0,0,1-.07,1H87.16a2.46,2.46,0,0,0,.76,1.69,2.31,2.31,0,0,0,1.63.61,2,2,0,0,0,2-1.21h2.72a4.58,4.58,0,0,1-1.66,2.38,4.85,4.85,0,0,1-3,.92,5.28,5.28,0,0,1-2.59-.63,4.68,4.68,0,0,1-1.79-1.82,6.14,6.14,0,0,1,0-5.42A4.39,4.39,0,0,1,87,94.58a5.66,5.66,0,0,1,5.15,0,4.25,4.25,0,0,1,1.74,1.75A5.13,5.13,0,0,1,94.52,98.88Zm-2.61-.72a1.94,1.94,0,0,0-.7-1.54,2.45,2.45,0,0,0-1.67-.6A2.28,2.28,0,0,0,88,96.6a2.43,2.43,0,0,0-.77,1.56Zm7-2.61a3.81,3.81,0,0,1,1.33-1.13,4.09,4.09,0,0,1,2-.47,4.33,4.33,0,0,1,2.31.63,4.41,4.41,0,0,1,1.64,1.8,5.73,5.73,0,0,1,.61,2.68,6,6,0,0,1-.61,2.72,4.53,4.53,0,0,1-1.64,1.82,4.26,4.26,0,0,1-2.31.65,4.05,4.05,0,0,1-1.94-.45,4.19,4.19,0,0,1-1.35-1.14v6.18H96.36V94.11h2.52Zm5.27,3.51a3,3,0,0,0-.37-1.54,2.45,2.45,0,0,0-1-1,2.49,2.49,0,0,0-1.29-.34,2.52,2.52,0,0,0-1.3.36,2.6,2.6,0,0,0-1,1,3.6,3.6,0,0,0,0,3.14,2.8,2.8,0,0,0,1,1,2.6,2.6,0,0,0,1.3.34,2.41,2.41,0,0,0,1.29-.36,2.6,2.6,0,0,0,1-1A3.2,3.2,0,0,0,104.15,99.06Zm3.76,0a5.81,5.81,0,0,1,.6-2.68,4.3,4.3,0,0,1,4-2.43,4,4,0,0,1,3.29,1.59V94.11h2.54v10h-2.54v-1.46a3.7,3.7,0,0,1-1.35,1.17,4.11,4.11,0,0,1-2,.45,4.33,4.33,0,0,1-2.31-.65,4.58,4.58,0,0,1-1.63-1.82A6,6,0,0,1,107.91,99.06Zm7.85,0a3.22,3.22,0,0,0-.36-1.57,2.4,2.4,0,0,0-1-1,2.57,2.57,0,0,0-1.32-.36,2.51,2.51,0,0,0-1.29.34,2.56,2.56,0,0,0-1,1,3.1,3.1,0,0,0-.36,1.54,3.39,3.39,0,0,0,.36,1.59,2.72,2.72,0,0,0,1,1,2.52,2.52,0,0,0,1.29.36,2.65,2.65,0,0,0,1.32-.34,2.55,2.55,0,0,0,1-1A3.26,3.26,0,0,0,115.76,99.1Zm7.52-3.44a3.48,3.48,0,0,1,1.26-1.24,3.59,3.59,0,0,1,1.8-.45v2.65h-.67a2.6,2.6,0,0,0-1.8.55,2.64,2.64,0,0,0-.59,2v5h-2.52v-10h2.52Zm6-2.73a1.57,1.57,0,0,1-1.11-.42,1.43,1.43,0,0,1-.43-1.06,1.36,1.36,0,0,1,.43-1,1.54,1.54,0,0,1,1.11-.44,1.48,1.48,0,0,1,1.1.44,1.34,1.34,0,0,1,.45,1,1.41,1.41,0,0,1-.45,1.06A1.51,1.51,0,0,1,129.31,92.93Zm1.25,1.18v10H128v-10Zm8-.14a3.84,3.84,0,0,1,2.88,1.13,4.3,4.3,0,0,1,1.1,3.14v5.85H140V98.58a2.59,2.59,0,0,0-.59-1.82,2.11,2.11,0,0,0-1.62-.65,2.18,2.18,0,0,0-1.66.65,2.54,2.54,0,0,0-.59,1.82v5.51h-2.52v-10h2.52v1.25a3.32,3.32,0,0,1,1.27-1A4,4,0,0,1,138.57,94Zm10.28,0a4.15,4.15,0,0,1,2,.45,3.62,3.62,0,0,1,1.33,1.14V94.11h2.54v10a5.31,5.31,0,0,1-.56,2.46,4,4,0,0,1-1.68,1.73,5.29,5.29,0,0,1-2.7.65,5.81,5.81,0,0,1-3.49-1,3.68,3.68,0,0,1-1.53-2.7h2.5a1.86,1.86,0,0,0,.85,1.08,2.93,2.93,0,0,0,1.6.41,2.45,2.45,0,0,0,1.78-.66,2.59,2.59,0,0,0,.69-2v-1.55a3.87,3.87,0,0,1-1.35,1.17,4,4,0,0,1-2,.47,4.3,4.3,0,0,1-2.3-.65,4.58,4.58,0,0,1-1.66-1.82,6.08,6.08,0,0,1-.59-2.72,5.94,5.94,0,0,1,.59-2.68,4.55,4.55,0,0,1,1.64-1.8A4.42,4.42,0,0,1,148.85,94Zm3.3,5.15a3.22,3.22,0,0,0-.36-1.57,2.46,2.46,0,0,0-1-1,2.57,2.57,0,0,0-1.32-.36,2.49,2.49,0,0,0-1.29.34,2.65,2.65,0,0,0-1,1,3.1,3.1,0,0,0-.36,1.54,3.39,3.39,0,0,0,.36,1.59,2.83,2.83,0,0,0,1,1,2.49,2.49,0,0,0,1.29.36,2.65,2.65,0,0,0,1.32-.34,2.62,2.62,0,0,0,1-1A3.26,3.26,0,0,0,152.15,99.1Zm13.71,5.15a5.31,5.31,0,0,1-2.59-.63,4.75,4.75,0,0,1-1.82-1.82,5.5,5.5,0,0,1-.64-2.7,5.4,5.4,0,0,1,.66-2.7,4.73,4.73,0,0,1,1.86-1.8,5.57,5.57,0,0,1,5.22,0,4.53,4.53,0,0,1,1.83,1.8,5.21,5.21,0,0,1,.69,2.7,5.13,5.13,0,0,1-.71,2.7,4.74,4.74,0,0,1-1.87,1.82A5.44,5.44,0,0,1,165.86,104.25Zm0-2.2a2.67,2.67,0,0,0,1.28-.32,2.49,2.49,0,0,0,1-1,3.34,3.34,0,0,0,.36-1.62,3,3,0,0,0-.75-2.18,2.54,2.54,0,0,0-3.64,0,3,3,0,0,0-.72,2.18,3.21,3.21,0,0,0,.7,2.2A2.39,2.39,0,0,0,165.86,102.05Zm9.57-6.39a3.64,3.64,0,0,1,1.26-1.24,3.59,3.59,0,0,1,1.8-.45v2.65h-.66a2.09,2.09,0,0,0-2.4,2.5v5h-2.52v-10h2.52Zm4.11,3.4a5.81,5.81,0,0,1,.6-2.68,4.5,4.5,0,0,1,1.65-1.8,4.43,4.43,0,0,1,2.33-.63,4.29,4.29,0,0,1,1.85.43,3.57,3.57,0,0,1,1.4,1.12V90.77h2.56v13.32h-2.56v-1.48a3.44,3.44,0,0,1-1.31,1.19,4.11,4.11,0,0,1-2,.45,4.33,4.33,0,0,1-2.31-.65,4.63,4.63,0,0,1-1.65-1.82A6,6,0,0,1,179.54,99.06Zm7.85,0a3.22,3.22,0,0,0-.36-1.57,2.4,2.4,0,0,0-1-1,2.56,2.56,0,0,0-3.58,1,3.1,3.1,0,0,0-.36,1.54,3.39,3.39,0,0,0,.36,1.59,2.72,2.72,0,0,0,1,1,2.52,2.52,0,0,0,1.3.36,2.64,2.64,0,0,0,1.31-.34,2.55,2.55,0,0,0,1-1A3.26,3.26,0,0,0,187.39,99.1Zm14.27-.22a5.86,5.86,0,0,1-.07,1H194.3a2.49,2.49,0,0,0,.75,1.69,2.33,2.33,0,0,0,1.64.61,2.05,2.05,0,0,0,2-1.21h2.72a4.58,4.58,0,0,1-1.66,2.38,4.87,4.87,0,0,1-3,.92,5.35,5.35,0,0,1-2.6-.63,4.65,4.65,0,0,1-1.78-1.82,6.14,6.14,0,0,1,0-5.42,4.39,4.39,0,0,1,1.77-1.8,5.64,5.64,0,0,1,5.14,0A4.22,4.22,0,0,1,201,96.31,5.13,5.13,0,0,1,201.66,98.88Zm-2.61-.72a2,2,0,0,0-.7-1.54,2.47,2.47,0,0,0-1.68-.6,2.27,2.27,0,0,0-1.58.58,2.43,2.43,0,0,0-.77,1.56Zm7-2.5a3.48,3.48,0,0,1,1.26-1.24,3.59,3.59,0,0,1,1.8-.45v2.65h-.67a2.6,2.6,0,0,0-1.8.55,2.64,2.64,0,0,0-.59,2v5H203.5v-10H206Z"/></svg>