<?xml version="1.0" encoding="utf-8"?>
<!-- Generator: Adobe Illustrator 25.2.3, SVG Export Plug-In . SVG Version: 6.00 Build 0)  -->
<svg version="1.1" id="Layer_1" xmlns="http://www.w3.org/2000/svg" xmlns:xlink="http://www.w3.org/1999/xlink" x="0px" y="0px"
	 viewBox="0 0 24 24" style="enable-background:new 0 0 24 24;" xml:space="preserve">
<style type="text/css">
	.st0{fill:#343331;fill-opacity:0;}
	.st1{fill:#343331;}
</style>
<g>
	<g>
		<rect class="st0" width="24" height="24"/>
		<path class="st1" d="M21.1,7c-0.4-0.6-1-1-1.7-1H6.6L6,3.7C5.9,3.3,5.5,3,5,3H3C2.4,3,2,3.4,2,4s0.4,1,1,1h1.2L7,15.3
			C7.1,15.7,7.5,16,8,16h9c0.4,0,0.7-0.2,0.9-0.6l3.3-6.6C21.5,8.3,21.4,7.6,21.1,7z M16.4,14H8.8L7.1,8h12.3L16.4,14z"/>
		<circle class="st1" cx="7.5" cy="19.5" r="1.5"/>
		<circle class="st1" cx="17.5" cy="19.5" r="1.5"/>
	</g>
</g>
</svg>
