<?xml version="1.0" encoding="utf-8"?>
<!-- Generator: Adobe Illustrator 25.2.3, SVG Export Plug-In . SVG Version: 6.00 Build 0)  -->
<svg version="1.1" id="Layer_1" xmlns="http://www.w3.org/2000/svg" xmlns:xlink="http://www.w3.org/1999/xlink" x="0px" y="0px"
	 viewBox="0 0 298.8 298.8" style="enable-background:new 0 0 298.8 298.8;" xml:space="preserve">
<style type="text/css">
	.st0{fill:none;}
</style>
<path class="st0" d="M157.4,257.5v6.6h-44v-15.2h31.8c-1.7-2.2-3-4.7-3.8-7.3H64.1c-4.8,0-8.6-3.7-8.6-8.2V37c0-4.5,3.9-8.2,8.6-8.2
	h142.5c4.8,0,8.6,3.7,8.6,8.2v138.5c2-0.3,4-0.6,6-0.6c3.7,0,7.5,0.6,11.1,1.7v-142c0-10.7-8.7-19.4-19.4-19.4H57.7
	c-10.7,0-19.4,8.7-19.4,19.4v217.1c0,10.7,8.7,19.4,19.4,19.4H187c-0.1,0-0.1-0.1-0.2-0.1L157.4,257.5z"/>
<path class="st0" d="M139.9,162.1l-41.1,20.4c0,1.1,0.9,2.1,2.1,2.1h46.4l-5-10.6C140.5,170.2,139.7,166.1,139.9,162.1z"/>
<path class="st0" d="M193.4,184.1l6.6-3V44H70.7v182.3h70.9c2.8-7.4,9.6-12.3,17.4-12.3c0.7,0,1.3,0,2,0.1l-6.6-14.3h-53.5
	c-9.5,0-17.3-7.8-17.3-17.3v-67l103.6,0v55.2L193.4,184.1z"/>
<path class="st0" d="M252.6,234.5c1-6.5,0.8-16.6-2.9-23.9c-6.3-12.4-17.4-20.5-28.5-20.5c-3.1,0-6.1,0.7-8.8,1.9l-19.5,9
	c-3.8,1.7-8.3,0.1-10.1-3.7l-16.3-34.7c-1.7-3.7-4.8-5.3-7-5.3c-0.6,0-1.2,0.1-1.7,0.4c-1.6,0.7-2.3,2.4-2.5,3.3
	c-0.6,2-0.3,4.4,0.7,6.5l26.6,57c0.4,0.9,0.6,1.8,0.7,2.7c0.3,2.3-0.5,4.6-2.2,6.2c-2.2,2.3-5.7,2.9-8.6,1.6l-11.6-5.3
	c-0.7-0.3-1.4-0.5-2-0.5c-1.6,0-2.9,1.1-3.4,3c-1,3.6,1.1,8.2,4.6,9.8l33.7,15.4c0.3,0.2,0.7,0.3,1,0.5c0.5,0.3,10.8,7.2,19.3,23.2
	l44.2-20.2C255.2,252.8,251.6,240.9,252.6,234.5z"/>
<path d="M159.6,142.1c-2.9,0-5.6,0.6-8.2,1.8c-5.2,2.4-9.1,7.2-10.8,13.1c-0.5,1.7-0.7,3.4-0.8,5.1l32-15.9
	C168.3,143.6,164,142.1,159.6,142.1z"/>
<path class="st0" d="M130.4,115.5c1,0.4,1.9,0.9,2.9,1.3c6.4,2.5,12.8,5.1,18.9,8.3c0.6,1.6,1.3,2.8,1.9,4.5l7.1,12.7
	c3.8,0.3,7.5,1.7,10.8,4c5.2,2.5,11.6,18.8,15.2,24.6v-55.2L130.4,115.5z"/>
<path class="st0" d="M140.9,197.1c0.3,0.9,0.4,1.8,0.6,2.7h12.8l-4.8-10.3c-1.3,0.6-2.7,1.1-4.1,1.5
	C142.2,192,140.6,193.9,140.9,197.1z"/>
<path class="st0" d="M140.7,157c0.5-1.7,1.1-3.2,1.9-4.7c-0.8-1.2-1.7-2.2-3-3.2c-2.5-1.9-5.1-3.5-8.3-4.8
	c-7.4-3.2-15.4-5.4-22.4-9.6c-8.3-4.8-14.4-11-16.9-19.3l-8.4,0v67c0,9.5,7.8,17.3,17.3,17.3h20.6c0-0.1,0-0.2,0-0.2
	c0-5.4-0.3-5.8-5.8-6.4c-6.7-1-13.4-2.6-19.8-5.4c-4.8-2.2-5.4-3.5-4.1-8.6c1-3.8,1.9-7.7,3.2-11.5c1.2-4.5,2.5-4.8,6.4-2.8
	c6.8,3.4,13.7,5.3,21.1,6l17.5-8.7C140,160.4,140.2,158.7,140.7,157z"/>
<path d="M108.9,134.8c7.1,4.1,15,6.4,22.4,9.6c3.2,1.3,5.8,2.8,8.3,4.8c1.2,1,2.2,2.1,3,3.2c2-3.7,5.1-6.6,8.8-8.4
	c2.6-1.2,5.3-1.8,8.2-1.8c0.5,0,7.2,1.5,7.7,1.5c0,0-2.8-12.8-15.1-18.6c-6.1-3.2-12.4-5.8-18.9-8.3c-0.9-0.4-1.9-0.9-2.9-1.3
	l-38.4,0C94.5,123.7,100.6,129.9,108.9,134.8z"/>
<path d="M100.8,184.6c-1.1,0-2.1-0.9-2.1-2.1l23.6-11.7c-7.4-0.7-14.3-2.6-21.1-6c-3.8-1.9-5.1-1.6-6.4,2.8
	c-1.3,3.8-2.2,7.7-3.2,11.5c-1.3,5.1-0.6,6.4,4.1,8.6c6.4,2.8,13.1,4.5,19.8,5.4c5.4,0.6,5.8,0.9,5.8,6.4c0,0.1,0,0.2,0,0.2h20.1
	c-0.1-0.9-0.3-1.8-0.6-2.7c-0.3-3.2,1.3-5.1,4.5-6.1c1.4-0.4,2.8-0.9,4.1-1.5l-2.3-4.9H100.8z"/>
<path class="st0" d="M139.9,162.1l-17.5,8.7c0.2,0,0.4,0,0.6,0.1c4.8,0.6,9.6,0,14.4-2.2c1-0.5,1.9-1,2.8-1.7
	C139.9,165.3,139.8,163.7,139.9,162.1z"/>
<path d="M123,170.9c-0.2,0-0.4,0-0.6-0.1l-23.6,11.7c0,1.1,0.9,2.1,2.1,2.1h46.4l-5-10.6c-1.1-2.3-1.8-4.6-2.1-7
	c-0.8,0.6-1.7,1.2-2.8,1.7C132.6,170.9,127.8,171.5,123,170.9z"/>
<path class="st0" d="M141.8,207c0,3.2-1.6,4.8-4.5,4.8c-3.5,0-7.4,0.3-10.9,0.3c-3.2,0-4.8-1.9-4.8-5.1c0-2.5,0-4.9-0.3-7.1h-20.6
	c-9.5,0-17.3-7.8-17.3-17.3v-67l8.4,0c-1-3.2-1.4-6.6-1.3-10.5c0.6-15.7,9.6-25.6,23.6-31c5.8-2.2,6.1-2.2,5.8-8.3
	c0-2.2,0-4.1,0-6.4c0-4.8,1-5.4,5.4-5.8c1.6,0,2.8,0,4.5,0c9.9-0.3,9.9-0.3,10.2,9.9c0,7.1,0,7.1,7.1,8c5.4,0.6,10.6,2.2,15.4,4.5
	c2.8,1.3,3.8,3.2,2.8,6.1c-1.3,4.2-2.2,8.7-3.5,12.8c-1.2,4.1-2.5,4.8-6.4,2.8c-7.7-3.5-16-5.1-24.6-4.5c-2.2,0-4.5,0.7-6.4,1.3
	c-7.4,3.2-8.4,11.5-1.9,16.5c2.3,1.9,5,3.2,7.6,4.4l56.8,0v55.2c2.2,3.5,6.3,13.3,6.3,13.3l6.6-3V44H70.7v182.3h70.9
	c2.8-7.4,9.6-12.3,17.4-12.3c0.7,0,1.3,0,2,0.1l-6.6-14.3h-12.8C141.8,202.1,141.8,204.5,141.8,207z"/>
<path d="M126.5,212.1c3.5,0,7.4-0.3,10.9-0.3c2.8,0,4.5-1.6,4.5-4.8c0-2.5,0-4.9-0.3-7.2h-20.1c0.3,2.2,0.3,4.6,0.3,7.1
	C121.7,210.2,123.3,212.1,126.5,212.1z"/>
<path d="M122.7,111c-6.5-5-5.5-13.4,1.9-16.5c1.9-0.6,4.1-1.3,6.4-1.3c8.6-0.6,17,0.9,24.6,4.5c3.8,1.9,5.1,1.3,6.4-2.8
	c1.3-4.1,2.2-8.6,3.5-12.8c0.9-2.8,0-4.8-2.8-6.1c-4.8-2.2-9.9-3.8-15.4-4.5c-7.1-0.9-7.1-0.9-7.1-8c-0.3-10.2-0.3-10.2-10.2-9.9
	c-1.6,0-2.8,0-4.5,0c-4.5,0.3-5.4,0.9-5.4,5.8c0,2.2,0,4.1,0,6.4c0.3,6.1,0,6.1-5.8,8.3c-14.1,5.4-23,15.4-23.6,31
	c-0.2,3.8,0.3,7.3,1.3,10.5l38.4,0C127.7,114.3,125,112.9,122.7,111z"/>
<path class="st0" d="M162.3,144.3c1,1.8,2,3.5,2.9,5.2l6.7-3.3c-3.2-2.3-6.9-3.7-10.8-4L162.3,144.3z"/>
<path class="st0" d="M142.6,152.3c-0.8,1.5-1.5,3-1.9,4.7c-0.5,1.7-0.7,3.4-0.8,5.1l4.4-2.2C144.7,157.4,144.1,154.7,142.6,152.3z"
	/>
<path d="M161.2,142.2c-0.5,0-1.1-0.1-1.6-0.1c-2.9,0-5.6,0.6-8.2,1.8c-3.7,1.7-6.8,4.7-8.8,8.4c1.6,2.4,2.1,5,1.7,7.6l20.9-10.4
	c-1-1.7-1.9-3.4-2.9-5.2L161.2,142.2z"/>
<path class="st0" d="M252.6,234.5c1-6.5,0.8-16.6-2.9-23.9c-6.3-12.4-17.4-20.5-28.5-20.5c-3.1,0-6.1,0.7-8.8,1.9l-19.5,9
	c-3.8,1.7-8.3,0.1-10.1-3.7l-13.1-27.9c-1.3,3-3,6-5.2,8.7c-0.7,0.9-1.5,1.8-2.3,2.6l20.4,43.7c0.4,0.9,0.6,1.8,0.7,2.7
	c0.3,2.3-0.5,4.6-2.2,6.2c-2.2,2.3-5.7,2.9-8.6,1.6l-11.6-5.3c-0.7-0.3-1.4-0.5-2-0.5c-1.6,0-2.9,1.1-3.4,3c-1,3.6,1.1,8.2,4.6,9.8
	l33.7,15.4c0.3,0.2,0.7,0.3,1,0.5c0.5,0.3,10.8,7.2,19.3,23.2l44.2-20.2C255.2,252.8,251.6,240.9,252.6,234.5z"/>
<path class="st0" d="M157.4,257.5v6.6h-44v-15.2h31.8c-1.7-2.2-3-4.7-3.8-7.3H64.1c-4.8,0-8.6-3.7-8.6-8.2V37c0-4.5,3.9-8.2,8.6-8.2
	h142.5c4.8,0,8.6,3.7,8.6,8.2v138.5c2-0.3,4-0.6,6-0.6c3.7,0,7.5,0.6,11.1,1.7v-142c0-10.7-8.7-19.4-19.4-19.4H57.7
	c-10.7,0-19.4,8.7-19.4,19.4v217.1c0,10.7,8.7,19.4,19.4,19.4H187c-0.1,0-0.1-0.1-0.2-0.1L157.4,257.5z"/>
<path d="M275,261.7c-3.9-8.4-7.7-21.8-7.4-24.8c1.4-9.1,1-22.6-4.3-33.1c-3.9-7.8-9.4-14.3-15.7-19.2V34.6C247.6,15.5,232.1,0,213,0
	H57.7C38.6,0,23.1,15.5,23.1,34.6v217.1c0,19.1,15.5,34.6,34.6,34.6h141.8c1.3,2.3,2.7,4.9,3.9,7.9c0.8,1.9,2.3,3.4,4.2,4.2
	c0.9,0.4,1.8,0.5,2.8,0.5c1.1,0,2.2-0.2,3.2-0.7l57.7-26.4c1.8-0.8,3.3-2.4,4-4.3C276,265.6,275.9,263.5,275,261.7z M57.7,271.1
	c-10.7,0-19.4-8.7-19.4-19.4V34.6c0-10.7,8.7-19.4,19.4-19.4H213c10.7,0,19.4,8.7,19.4,19.4v142c-3.6-1.1-7.4-1.7-11.1-1.7
	c-2,0-4,0.2-6,0.6V37c0-4.5-3.9-8.2-8.6-8.2H64.1c-4.8,0-8.6,3.7-8.6,8.2v196.3c0,4.5,3.9,8.2,8.6,8.2h77.2c0.9,2.6,2.1,5.1,3.8,7.3
	h-31.8V264h44v-6.6l29.5,13.5c0.1,0,0.1,0.1,0.2,0.1H57.7z M214.1,281.2c-8.5-16.1-18.8-22.9-19.3-23.2c-0.3-0.2-0.6-0.4-1-0.5
	L160.1,242c-3.4-1.6-5.6-6.1-4.6-9.8c0.5-1.9,1.8-3,3.4-3c0.6,0,1.3,0.2,2,0.5l11.6,5.3c2.9,1.3,6.3,0.7,8.6-1.6
	c1.7-1.7,2.4-4,2.2-6.2c-0.1-0.9-0.3-1.8-0.7-2.7l-20.4-43.7c-3.6,3.7-7.9,6.7-12.7,8.7l4.8,10.3l6.6,14.3c-0.6-0.1-1.3-0.1-2-0.1
	c-7.8,0-14.6,4.9-17.4,12.3H70.7V44H200v137.1l-6.6,3l-6.3-13.3c-3.6-5.8-10-22-15.2-24.6l-6.7,3.3c2.2,3.9,4.4,7.8,6.7,11.8
	c-0.3,2.8-1.1,5.6-2.2,8.3l13.1,27.9c1.8,3.8,6.3,5.4,10.1,3.7l19.5-9c2.8-1.3,5.7-1.9,8.8-1.9c11,0,22.2,8,28.5,20.5
	c3.7,7.3,3.9,17.5,2.9,23.9c-1,6.3,2.6,18.2,5.7,26.5L214.1,281.2z"/>
<path d="M140.1,166.9c2.4-1.9,3.8-4.4,4.2-7l-4.4,2.2C139.8,163.7,139.9,165.3,140.1,166.9z"/>
<path d="M155.3,161c0.3-0.9,0.9-2.6,2.5-3.3c0.5-0.2,1.1-0.4,1.7-0.4c2.2,0,5.3,1.7,7,5.3l3.2,6.8c1.1-2.7,1.8-5.4,2.2-8.3
	c-2.2-4-4.4-7.9-6.7-11.8l-20.9,10.4c-0.4,2.7-1.8,5.2-4.2,7c0.4,2.4,1.1,4.8,2.1,7l5,10.6l2.3,4.9c4.8-2,9.2-5,12.7-8.7l-6.2-13.3
	C155.1,165.4,154.8,163,155.3,161z"/>
<path d="M193.4,184.1c0,0-4.1-9.9-6.3-13.3L193.4,184.1z"/>
</svg>
